<mxfile host="app.diagrams.net" modified="2023-11-30T06:22:22.299Z" agent="Mozilla/5.0 (Windows NT 10.0; Win64; x64) AppleWebKit/537.36 (KHTML, like Gecko) Chrome/119.0.0.0 Safari/537.36" etag="rT6n2-ZO2WTcw43D1mK6" version="22.1.5" type="github">
  <diagram name="Halaman-1" id="0Cjt1K5dIbtuh46_x1xr">
    <mxGraphModel dx="1050" dy="581" grid="1" gridSize="10" guides="1" tooltips="1" connect="1" arrows="1" fold="1" page="1" pageScale="1" pageWidth="827" pageHeight="1169" math="0" shadow="0">
      <root>
        <mxCell id="0" />
        <mxCell id="1" parent="0" />
        <mxCell id="XIM64QuQDNMLiwLbH1cP-1" value="" style="whiteSpace=wrap;html=1;aspect=fixed;" parent="1" vertex="1">
          <mxGeometry x="149" y="30" width="530" height="530" as="geometry" />
        </mxCell>
        <mxCell id="XIM64QuQDNMLiwLbH1cP-13" style="edgeStyle=orthogonalEdgeStyle;rounded=0;orthogonalLoop=1;jettySize=auto;html=1;dashed=1;" parent="1" source="XIM64QuQDNMLiwLbH1cP-3" target="XIM64QuQDNMLiwLbH1cP-10" edge="1">
          <mxGeometry relative="1" as="geometry" />
        </mxCell>
        <mxCell id="XIM64QuQDNMLiwLbH1cP-3" value="Login" style="ellipse;whiteSpace=wrap;html=1;" parent="1" vertex="1">
          <mxGeometry x="354" y="100" width="120" height="80" as="geometry" />
        </mxCell>
        <mxCell id="XIM64QuQDNMLiwLbH1cP-4" value="Anggota" style="shape=umlActor;verticalLabelPosition=bottom;verticalAlign=top;html=1;outlineConnect=0;" parent="1" vertex="1">
          <mxGeometry x="40" y="200" width="30" height="60" as="geometry" />
        </mxCell>
        <mxCell id="XIM64QuQDNMLiwLbH1cP-5" value="Librarian" style="shape=umlActor;verticalLabelPosition=bottom;verticalAlign=top;html=1;outlineConnect=0;" parent="1" vertex="1">
          <mxGeometry x="730" y="180" width="30" height="60" as="geometry" />
        </mxCell>
        <mxCell id="XIM64QuQDNMLiwLbH1cP-6" value="&lt;b&gt;&lt;font style=&quot;font-size: 20px;&quot;&gt;Library INDIVARA&lt;/font&gt;&lt;/b&gt;" style="text;html=1;strokeColor=none;fillColor=none;align=center;verticalAlign=middle;whiteSpace=wrap;rounded=0;" parent="1" vertex="1">
          <mxGeometry x="384" y="50" width="60" height="30" as="geometry" />
        </mxCell>
        <mxCell id="XIM64QuQDNMLiwLbH1cP-8" value="" style="endArrow=classic;html=1;rounded=0;" parent="1" source="XIM64QuQDNMLiwLbH1cP-5" target="XIM64QuQDNMLiwLbH1cP-3" edge="1">
          <mxGeometry width="50" height="50" relative="1" as="geometry">
            <mxPoint x="720" y="160" as="sourcePoint" />
            <mxPoint x="770" y="110" as="targetPoint" />
          </mxGeometry>
        </mxCell>
        <mxCell id="XIM64QuQDNMLiwLbH1cP-9" value="" style="endArrow=classic;html=1;rounded=0;exitX=0.75;exitY=0.1;exitDx=0;exitDy=0;exitPerimeter=0;" parent="1" source="XIM64QuQDNMLiwLbH1cP-4" target="XIM64QuQDNMLiwLbH1cP-3" edge="1">
          <mxGeometry width="50" height="50" relative="1" as="geometry">
            <mxPoint x="60" y="180" as="sourcePoint" />
            <mxPoint x="110" y="130" as="targetPoint" />
          </mxGeometry>
        </mxCell>
        <mxCell id="XIM64QuQDNMLiwLbH1cP-10" value="Logout" style="ellipse;whiteSpace=wrap;html=1;" parent="1" vertex="1">
          <mxGeometry x="354" y="470" width="120" height="80" as="geometry" />
        </mxCell>
        <mxCell id="XIM64QuQDNMLiwLbH1cP-14" value="&amp;lt;include&amp;gt;" style="text;html=1;align=center;verticalAlign=middle;resizable=0;points=[];autosize=1;strokeColor=none;fillColor=none;rotation=90;fontStyle=1;fontSize=13;" parent="1" vertex="1">
          <mxGeometry x="385" y="280" width="80" height="30" as="geometry" />
        </mxCell>
        <mxCell id="XIM64QuQDNMLiwLbH1cP-18" value="Borrow" style="ellipse;whiteSpace=wrap;html=1;" parent="1" vertex="1">
          <mxGeometry x="322" y="185" width="80" height="50" as="geometry" />
        </mxCell>
        <mxCell id="XIM64QuQDNMLiwLbH1cP-19" value="Return" style="ellipse;whiteSpace=wrap;html=1;" parent="1" vertex="1">
          <mxGeometry x="323" y="250" width="80" height="55" as="geometry" />
        </mxCell>
        <mxCell id="XIM64QuQDNMLiwLbH1cP-20" value="add book" style="ellipse;whiteSpace=wrap;html=1;" parent="1" vertex="1">
          <mxGeometry x="420" y="190" width="86" height="50" as="geometry" />
        </mxCell>
        <mxCell id="XIM64QuQDNMLiwLbH1cP-21" value="edit book" style="ellipse;whiteSpace=wrap;html=1;" parent="1" vertex="1">
          <mxGeometry x="440" y="270" width="86" height="50" as="geometry" />
        </mxCell>
        <mxCell id="XIM64QuQDNMLiwLbH1cP-22" value="delete" style="ellipse;whiteSpace=wrap;html=1;" parent="1" vertex="1">
          <mxGeometry x="440" y="350" width="86" height="50" as="geometry" />
        </mxCell>
        <mxCell id="XIM64QuQDNMLiwLbH1cP-23" value="view book" style="ellipse;whiteSpace=wrap;html=1;" parent="1" vertex="1">
          <mxGeometry x="323" y="325" width="80" height="60" as="geometry" />
        </mxCell>
        <mxCell id="XIM64QuQDNMLiwLbH1cP-25" value="" style="endArrow=classic;html=1;rounded=0;exitX=0.75;exitY=0.1;exitDx=0;exitDy=0;exitPerimeter=0;" parent="1" source="XIM64QuQDNMLiwLbH1cP-4" target="XIM64QuQDNMLiwLbH1cP-18" edge="1">
          <mxGeometry width="50" height="50" relative="1" as="geometry">
            <mxPoint x="73" y="216" as="sourcePoint" />
            <mxPoint x="366" y="161" as="targetPoint" />
          </mxGeometry>
        </mxCell>
        <mxCell id="XIM64QuQDNMLiwLbH1cP-26" value="" style="endArrow=classic;html=1;rounded=0;exitX=0.75;exitY=0.1;exitDx=0;exitDy=0;exitPerimeter=0;entryX=0;entryY=0.5;entryDx=0;entryDy=0;" parent="1" source="XIM64QuQDNMLiwLbH1cP-4" target="XIM64QuQDNMLiwLbH1cP-19" edge="1">
          <mxGeometry width="50" height="50" relative="1" as="geometry">
            <mxPoint x="83" y="226" as="sourcePoint" />
            <mxPoint x="235.2365019523777" y="273.8968920683217" as="targetPoint" />
          </mxGeometry>
        </mxCell>
        <mxCell id="XIM64QuQDNMLiwLbH1cP-27" value="" style="endArrow=classic;html=1;rounded=0;exitX=0.75;exitY=0.1;exitDx=0;exitDy=0;exitPerimeter=0;entryX=0;entryY=0.5;entryDx=0;entryDy=0;" parent="1" source="XIM64QuQDNMLiwLbH1cP-4" target="XIM64QuQDNMLiwLbH1cP-23" edge="1">
          <mxGeometry width="50" height="50" relative="1" as="geometry">
            <mxPoint x="73" y="216" as="sourcePoint" />
            <mxPoint x="340" y="288" as="targetPoint" />
          </mxGeometry>
        </mxCell>
        <mxCell id="XIM64QuQDNMLiwLbH1cP-29" value="" style="endArrow=classic;html=1;rounded=0;exitX=0.5;exitY=0.5;exitDx=0;exitDy=0;exitPerimeter=0;entryX=1;entryY=0.5;entryDx=0;entryDy=0;" parent="1" source="XIM64QuQDNMLiwLbH1cP-5" target="XIM64QuQDNMLiwLbH1cP-20" edge="1">
          <mxGeometry width="50" height="50" relative="1" as="geometry">
            <mxPoint x="740" y="217" as="sourcePoint" />
            <mxPoint x="481" y="162" as="targetPoint" />
          </mxGeometry>
        </mxCell>
        <mxCell id="XIM64QuQDNMLiwLbH1cP-30" value="" style="endArrow=classic;html=1;rounded=0;" parent="1" source="XIM64QuQDNMLiwLbH1cP-5" target="XIM64QuQDNMLiwLbH1cP-21" edge="1">
          <mxGeometry width="50" height="50" relative="1" as="geometry">
            <mxPoint x="750" y="227" as="sourcePoint" />
            <mxPoint x="491" y="172" as="targetPoint" />
          </mxGeometry>
        </mxCell>
        <mxCell id="XIM64QuQDNMLiwLbH1cP-31" value="" style="endArrow=classic;html=1;rounded=0;" parent="1" source="XIM64QuQDNMLiwLbH1cP-5" target="XIM64QuQDNMLiwLbH1cP-22" edge="1">
          <mxGeometry width="50" height="50" relative="1" as="geometry">
            <mxPoint x="760" y="237" as="sourcePoint" />
            <mxPoint x="501" y="182" as="targetPoint" />
          </mxGeometry>
        </mxCell>
        <mxCell id="XIM64QuQDNMLiwLbH1cP-32" value="search" style="ellipse;whiteSpace=wrap;html=1;" parent="1" vertex="1">
          <mxGeometry x="324" y="400" width="80" height="60" as="geometry" />
        </mxCell>
        <mxCell id="XIM64QuQDNMLiwLbH1cP-33" value="" style="endArrow=classic;html=1;rounded=0;exitX=0.75;exitY=0.1;exitDx=0;exitDy=0;exitPerimeter=0;entryX=0;entryY=0.5;entryDx=0;entryDy=0;" parent="1" source="XIM64QuQDNMLiwLbH1cP-4" target="XIM64QuQDNMLiwLbH1cP-32" edge="1">
          <mxGeometry width="50" height="50" relative="1" as="geometry">
            <mxPoint x="73" y="216" as="sourcePoint" />
            <mxPoint x="340" y="365" as="targetPoint" />
          </mxGeometry>
        </mxCell>
        <mxCell id="0hWViLh3mviXOZ_fgPcP-1" value="" style="endArrow=classic;html=1;rounded=0;exitX=0.75;exitY=0.1;exitDx=0;exitDy=0;exitPerimeter=0;entryX=0;entryY=0.5;entryDx=0;entryDy=0;" edge="1" parent="1" source="XIM64QuQDNMLiwLbH1cP-4" target="XIM64QuQDNMLiwLbH1cP-10">
          <mxGeometry width="50" height="50" relative="1" as="geometry">
            <mxPoint x="70" y="390" as="sourcePoint" />
            <mxPoint x="120" y="340" as="targetPoint" />
          </mxGeometry>
        </mxCell>
        <mxCell id="0hWViLh3mviXOZ_fgPcP-3" value="" style="endArrow=classic;html=1;rounded=0;exitX=0.5;exitY=0.5;exitDx=0;exitDy=0;exitPerimeter=0;entryX=1;entryY=0.5;entryDx=0;entryDy=0;" edge="1" parent="1" source="XIM64QuQDNMLiwLbH1cP-5" target="XIM64QuQDNMLiwLbH1cP-10">
          <mxGeometry width="50" height="50" relative="1" as="geometry">
            <mxPoint x="780" y="380" as="sourcePoint" />
            <mxPoint x="830" y="330" as="targetPoint" />
          </mxGeometry>
        </mxCell>
      </root>
    </mxGraphModel>
  </diagram>
</mxfile>
